<svg width="64" height="64" viewBox="0 0 64 64" fill="none" xmlns="http://www.w3.org/2000/svg">
<circle cx="31.5" cy="32.5" r="24.5" fill="white"/>
<path d="M31.5 57C45.031 57 56 46.031 56 32.5C56 18.969 45.031 8 31.5 8C17.969 8 7 18.969 7 32.5C7 42.4402 12.9197 50.9978 21.4261 54.8397C21.4375 54.5746 21.4504 54.3316 21.4614 54.1232C21.4764 53.8391 21.488 53.6193 21.488 53.4958C21.488 52.7596 21.9886 49.1082 21.9886 49.1082L25.0511 36.5342C24.5799 35.7686 24.2266 34.149 24.2266 32.9122C24.2266 27.1995 27.4069 25.9627 29.3504 25.9627C31.8239 25.9627 32.3834 28.6424 32.3834 30.6154C32.3834 31.659 31.8421 33.2925 31.285 34.9734C30.6946 36.755 30.0865 38.5899 30.0865 39.8323C30.0865 42.247 32.4718 43.4543 34.1208 43.4543C38.479 43.4543 42.4838 37.9771 42.4838 32.5C42.4838 27.0228 39.9219 20.3972 31.5295 20.3972C23.137 20.3972 19.3678 26.7872 19.3678 31.6755C19.3678 34.9735 20.6046 37.3882 21.223 37.8005C21.3996 37.9575 21.7 38.4424 21.488 39.1256C21.276 39.8088 20.8892 41.3341 20.7224 42.0114C20.7027 42.1684 20.5162 42.4354 19.9273 42.247C19.1911 42.0114 14.509 39.0667 14.509 31.6755C14.509 24.2842 20.3101 15.6857 31.5295 15.6857C42.7488 15.6857 48.491 23.2241 48.491 32.5C48.491 41.7758 40.982 47.6947 35.2692 47.6947C30.699 47.6947 28.9087 45.653 28.5847 44.6322L26.8474 51.2578C26.4371 52.357 25.6718 54.3326 24.7282 56.0521C26.8789 56.6694 29.1508 57 31.5 57Z" fill="#BB0F23"/>
</svg>
