<svg width="64" height="64" viewBox="0 0 64 64" fill="none" xmlns="http://www.w3.org/2000/svg">
<path d="M21.2053 57C14.5042 57 8.25765 54.9955 3 51.5367C7.46391 51.8338 15.3417 51.1224 20.2417 46.3154C12.8705 45.9675 9.54626 40.1531 9.11266 37.6684C9.73897 37.9168 12.726 38.215 14.4122 37.5193C5.93293 35.3327 4.63214 27.6795 4.9212 25.3438C6.51106 26.4868 9.20901 26.8844 10.2689 26.785C2.36779 20.9706 5.21027 12.2241 6.60742 10.3357C12.2776 18.415 20.7753 22.9526 31.2882 23.205C31.09 22.3109 30.9853 21.38 30.9853 20.4239C30.9853 13.5624 36.3778 8 43.0297 8C46.5053 8 49.637 9.51848 51.8354 11.9474C54.1579 11.3876 57.6532 10.0773 59.362 8.94422C58.5007 12.1247 55.8192 14.778 54.1972 15.7613C54.184 15.7277 54.2107 15.7948 54.1972 15.7613C55.622 15.5397 59.4771 14.7777 61 13.715C60.2469 15.5018 57.404 18.4726 55.071 20.1359C55.5051 39.8246 40.8584 57 21.2053 57Z" fill="#47ACDF"/>
</svg>
